<svg width="31" height="31" viewBox="0 0 31 31" fill="none" xmlns="http://www.w3.org/2000/svg">
<path fill-rule="evenodd" clip-rule="evenodd" d="M1.9375 15.5C1.9375 19.097 3.3664 22.5467 5.90986 25.0901C8.45332 27.6336 11.903 29.0625 15.5 29.0625C19.097 29.0625 22.5467 27.6336 25.0901 25.0901C27.6336 22.5467 29.0625 19.097 29.0625 15.5C29.0625 11.903 27.6336 8.45333 25.0901 5.90986C22.5467 3.3664 19.097 1.9375 15.5 1.9375C11.903 1.9375 8.45333 3.3664 5.90986 5.90986C3.3664 8.45333 1.9375 11.903 1.9375 15.5ZM31 15.5C31 19.6109 29.367 23.5533 26.4602 26.4602C23.5533 29.367 19.6109 31 15.5 31C11.3891 31 7.44666 29.367 4.53984 26.4602C1.63303 23.5533 -9.06632e-07 19.6109 -7.16583e-07 15.5C-5.26533e-07 11.3891 1.63303 7.44666 4.53984 4.53984C7.44666 1.63303 11.3891 0 15.5 0C19.6109 0 23.5533 1.63303 26.4602 4.53984C29.367 7.44666 31 11.3891 31 15.5ZM22.2812 14.5313C22.5382 14.5313 22.7846 14.6333 22.9663 14.815C23.1479 14.9967 23.25 15.2431 23.25 15.5C23.25 15.7569 23.1479 16.0033 22.9663 16.185C22.7846 16.3667 22.5382 16.4688 22.2812 16.4688L11.0573 16.4688L15.2171 20.6266C15.3072 20.7167 15.3786 20.8236 15.4274 20.9413C15.4761 21.059 15.5012 21.1851 15.5012 21.3125C15.5012 21.4399 15.4761 21.566 15.4274 21.6837C15.3786 21.8014 15.3072 21.9083 15.2171 21.9984C15.1271 22.0884 15.0201 22.1599 14.9024 22.2086C14.7848 22.2574 14.6586 22.2825 14.5312 22.2825C14.4039 22.2825 14.2777 22.2574 14.1601 22.2086C14.0424 22.1599 13.9354 22.0884 13.8454 21.9984L8.03287 16.1859C7.94266 16.0959 7.87108 15.989 7.82224 15.8713C7.77341 15.7536 7.74827 15.6274 7.74827 15.5C7.74827 15.3726 7.77341 15.2464 7.82224 15.1287C7.87108 15.011 7.94266 14.9041 8.03287 14.8141L13.8454 9.00163C14.0273 8.81972 14.274 8.71753 14.5312 8.71753C14.7885 8.71753 15.0352 8.81972 15.2171 9.00163C15.399 9.18353 15.5012 9.43025 15.5012 9.6875C15.5012 9.94475 15.399 10.1915 15.2171 10.3734L11.0573 14.5313L22.2812 14.5313Z" fill="white"/>
</svg>
