<svg width="42" height="42" viewBox="0 0 42 42" fill="none" xmlns="http://www.w3.org/2000/svg">
<path d="M21.0001 41.25C17.2786 41.25 14.2501 38.2215 14.2501 34.5L14.3694 27.6307L7.54062 27.75C3.77862 27.75 0.750122 24.7215 0.750122 21C0.750122 17.2785 3.77862 14.25 7.50012 14.25L14.3694 14.1285L14.2501 7.5405C14.2501 3.7785 17.2786 0.75 21.0001 0.75C24.7216 0.75 27.7501 3.7785 27.7501 7.5L27.8739 14.1285L34.5406 14.25C38.2216 14.25 41.2501 17.2785 41.2501 21C41.2501 24.7215 38.2216 27.75 34.5001 27.75L27.8739 27.6307L27.7501 34.5405C27.7501 38.2215 24.7216 41.25 21.0001 41.25ZM18.7501 23.25V34.5405C18.7501 35.7397 19.7604 36.75 21.0001 36.75C22.2399 36.75 23.2501 35.7397 23.2501 34.5V23.25H34.5406C35.7399 23.25 36.7501 22.2397 36.7501 21C36.7501 19.7603 35.7399 18.75 34.5001 18.75H23.2501V7.5C23.2501 6.21975 22.2399 5.25 21.0001 5.25C19.7604 5.25 18.7501 6.26025 18.7501 7.5V18.75H7.50012C6.21987 18.75 5.25012 19.7603 5.25012 21C5.25012 22.2397 6.26037 23.25 7.50012 23.25H18.7501Z" fill="white"/>
</svg>
