<svg width="30" height="22" viewBox="0 0 30 22" fill="none" xmlns="http://www.w3.org/2000/svg">
<path d="M28.1141 9.52966C28.7856 10.408 28.7856 11.5937 28.1141 12.4707C25.999 15.2317 20.9245 20.9168 15 20.9168C9.07548 20.9168 4.00098 15.2317 1.88589 12.4707C1.55918 12.0501 1.38184 11.5327 1.38184 11.0002C1.38184 10.4676 1.55918 9.95023 1.88589 9.52966C4.00098 6.76858 9.07548 1.0835 15 1.0835C20.9245 1.0835 25.999 6.76858 28.1141 9.52966V9.52966Z" stroke="white" stroke-width="2" stroke-linecap="round" stroke-linejoin="round"/>
<path d="M15 15.25C17.3472 15.25 19.25 13.3472 19.25 11C19.25 8.65279 17.3472 6.75 15 6.75C12.6528 6.75 10.75 8.65279 10.75 11C10.75 13.3472 12.6528 15.25 15 15.25Z" stroke="white" stroke-width="2" stroke-linecap="round" stroke-linejoin="round"/>
</svg>
