<svg width="42" height="41" viewBox="0 0 42 41" fill="none" xmlns="http://www.w3.org/2000/svg">
<path d="M19.2435 15.2671V17.6194H17.5215V20.4946H19.2435V29.0413H22.7831V20.4946H25.1577C25.1577 20.4946 25.3815 19.1159 25.4891 17.6075H22.7968V15.6429C22.7968 15.3473 23.1829 14.9527 23.5656 14.9527H25.4926V11.958H22.8703C19.1564 11.958 19.2435 14.8366 19.2435 15.2671Z" fill="white"/>
<path d="M11.2227 6.83366C10.3166 6.83366 9.44754 7.19363 8.80679 7.83438C8.16604 8.47513 7.80607 9.34417 7.80607 10.2503V30.7503C7.80607 31.6565 8.16604 32.5255 8.80679 33.1663C9.44754 33.807 10.3166 34.167 11.2227 34.167H31.7227C32.6289 34.167 33.4979 33.807 34.1387 33.1663C34.7794 32.5255 35.1394 31.6565 35.1394 30.7503V10.2503C35.1394 9.34417 34.7794 8.47513 34.1387 7.83438C33.4979 7.19363 32.6289 6.83366 31.7227 6.83366H11.2227ZM11.2227 3.41699H31.7227C33.535 3.41699 35.2731 4.13693 36.5546 5.41843C37.8361 6.69993 38.5561 8.43801 38.5561 10.2503V30.7503C38.5561 32.5626 37.8361 34.3007 36.5546 35.5822C35.2731 36.8637 33.535 37.5837 31.7227 37.5837H11.2227C9.41042 37.5837 7.67234 36.8637 6.39084 35.5822C5.10934 34.3007 4.3894 32.5626 4.3894 30.7503V10.2503C4.3894 8.43801 5.10934 6.69993 6.39084 5.41843C7.67234 4.13693 9.41042 3.41699 11.2227 3.41699Z" fill="white"/>
</svg>
