<svg width="35" height="35" viewBox="0 0 35 35" fill="none" xmlns="http://www.w3.org/2000/svg">
<path fill-rule="evenodd" clip-rule="evenodd" d="M10.3741 0.840307C12.1613 0.75803 12.7312 0.739746 17.2838 0.739746C21.8365 0.739746 22.4063 0.759554 24.192 0.840307C25.9778 0.92106 27.1967 1.20598 28.2632 1.61889C29.3801 2.04094 30.3933 2.70068 31.2313 3.55392C32.0845 4.39041 32.7428 5.40211 33.1633 6.52047C33.5777 7.58702 33.8611 8.80594 33.9434 10.5886C34.0257 12.3789 34.044 12.9487 34.044 17.4999C34.044 22.0525 34.0242 22.6224 33.9434 24.4096C33.8626 26.1923 33.5777 27.4112 33.1633 28.4778C32.7427 29.5963 32.0834 30.6097 31.2313 31.4474C30.3933 32.3006 29.3801 32.9588 28.2632 33.3793C27.1967 33.7938 25.9778 34.0772 24.1951 34.1595C22.4063 34.2417 21.8365 34.26 17.2838 34.26C12.7312 34.26 12.1613 34.2402 10.3741 34.1595C8.5914 34.0787 7.37248 33.7938 6.30593 33.3793C5.18745 32.9588 4.17407 32.2995 3.33634 31.4474C2.48367 30.6104 1.82383 29.5975 1.40283 28.4793C0.989918 27.4127 0.706519 26.1938 0.624242 24.4111C0.541965 22.6209 0.523682 22.051 0.523682 17.4999C0.523682 12.9472 0.543489 12.3774 0.624242 10.5917C0.704996 8.80594 0.989918 7.58702 1.40283 6.52047C1.82446 5.40223 2.4848 4.38936 3.33786 3.5524C4.17441 2.69992 5.18677 2.04009 6.30441 1.61889C7.37096 1.20598 8.58988 0.922584 10.3725 0.840307H10.3741ZM24.0564 3.85713C22.289 3.77638 21.7588 3.75962 17.2838 3.75962C12.8089 3.75962 12.2786 3.77638 10.5112 3.85713C8.87632 3.93179 7.98956 4.20452 7.39839 4.43459C6.61675 4.73932 6.05757 5.10043 5.47097 5.68703C4.91491 6.22801 4.48697 6.88657 4.21853 7.61445C3.98846 8.20562 3.71573 9.09239 3.64107 10.7273C3.56031 12.4947 3.54355 13.0249 3.54355 17.4999C3.54355 21.9748 3.56031 22.5051 3.64107 24.2725C3.71573 25.9074 3.98846 26.7941 4.21853 27.3853C4.48669 28.1121 4.91484 28.7718 5.47097 29.3127C6.01187 29.8689 6.67161 30.297 7.39839 30.5652C7.98956 30.7952 8.87632 31.068 10.5112 31.1426C12.2786 31.2234 12.8073 31.2401 17.2838 31.2401C21.7603 31.2401 22.289 31.2234 24.0564 31.1426C25.6913 31.068 26.5781 30.7952 27.1693 30.5652C27.9509 30.2604 28.5101 29.8993 29.0967 29.3127C29.6528 28.7718 30.0809 28.1121 30.3491 27.3853C30.5792 26.7941 30.8519 25.9074 30.9266 24.2725C31.0073 22.5051 31.0241 21.9748 31.0241 17.4999C31.0241 13.0249 31.0073 12.4947 30.9266 10.7273C30.8519 9.09239 30.5792 8.20562 30.3491 7.61445C30.0444 6.83282 29.6833 6.27364 29.0967 5.68703C28.5557 5.13101 27.8971 4.70308 27.1693 4.43459C26.5781 4.20452 25.6913 3.93179 24.0564 3.85713ZM15.1431 22.6666C16.3386 23.1642 17.6699 23.2314 18.9094 22.8566C20.149 22.4818 21.22 21.6883 21.9395 20.6115C22.659 19.5348 22.9823 18.2417 22.8544 16.953C22.7264 15.6644 22.1549 14.4602 21.2377 13.546C20.653 12.9617 19.946 12.5142 19.1676 12.2359C18.3892 11.9576 17.5587 11.8553 16.7361 11.9365C15.9134 12.0176 15.1189 12.2801 14.4099 12.7052C13.7009 13.1302 13.0949 13.7071 12.6356 14.3945C12.1763 15.0818 11.8752 15.8624 11.7538 16.6801C11.6324 17.4978 11.6938 18.3322 11.9336 19.1234C12.1734 19.9145 12.5856 20.6426 13.1406 21.2552C13.6956 21.8679 14.3795 22.3499 15.1431 22.6666ZM11.1923 11.4083C11.9922 10.6084 12.9419 9.97382 13.9871 9.54089C15.0323 9.10796 16.1525 8.88513 17.2838 8.88513C18.4151 8.88513 19.5354 9.10796 20.5805 9.54089C21.6257 9.97382 22.5754 10.6084 23.3754 11.4083C24.1753 12.2083 24.8099 13.158 25.2428 14.2032C25.6757 15.2483 25.8986 16.3686 25.8986 17.4999C25.8986 18.6312 25.6757 19.7514 25.2428 20.7966C24.8099 21.8418 24.1753 22.7915 23.3754 23.5914C21.7598 25.207 19.5686 26.1146 17.2838 26.1146C14.999 26.1146 12.8078 25.207 11.1923 23.5914C9.57669 21.9758 8.66907 19.7847 8.66907 17.4999C8.66907 15.2151 9.57669 13.0239 11.1923 11.4083ZM27.8092 10.1681C28.0074 9.98108 28.1661 9.75621 28.2759 9.50678C28.3857 9.25735 28.4443 8.98843 28.4482 8.71594C28.4522 8.44345 28.4015 8.17294 28.299 7.92041C28.1966 7.66789 28.0445 7.43848 27.8518 7.24578C27.6591 7.05309 27.4297 6.90101 27.1772 6.79856C26.9246 6.69611 26.6541 6.64537 26.3816 6.64934C26.1091 6.65332 25.8402 6.71192 25.5908 6.82169C25.3414 6.93146 25.1165 7.09015 24.9295 7.28839C24.5658 7.67391 24.3667 8.186 24.3744 8.71594C24.3822 9.24588 24.5961 9.75194 24.9709 10.1267C25.3456 10.5015 25.8517 10.7154 26.3816 10.7231C26.9116 10.7309 27.4237 10.5318 27.8092 10.1681Z" fill="white"/>
</svg>
