<svg width="265" height="67" viewBox="0 0 265 67" fill="none" xmlns="http://www.w3.org/2000/svg">
<path d="M93.0604 33.3198H99.7283V42.2798C98.6377 42.6297 97.5883 42.8779 96.5803 43.0244C95.5805 43.1709 94.4981 43.2441 93.333 43.2441C90.5898 43.2441 88.4746 42.4466 86.9872 40.8516C85.5 39.2484 84.7563 36.9901 84.7563 34.0767C84.7563 31.2039 85.595 28.9578 87.2723 27.3384C88.9496 25.7108 91.2591 24.897 94.2006 24.897C96.0928 24.897 97.8858 25.255 99.5797 25.9712L98.5386 28.4004C97.0678 27.7331 95.597 27.3994 94.1263 27.3994C92.1928 27.3994 90.6641 27.9976 89.5405 29.1938C88.4167 30.3901 87.8548 32.0259 87.8548 34.1011C87.8548 36.2821 88.3588 37.9422 89.3669 39.0815C90.3832 40.2127 91.8416 40.7783 93.742 40.7783C94.7006 40.7783 95.7251 40.6603 96.8158 40.4243V35.8223H93.0604V33.3198ZM112.358 43L111.775 41.1201H111.677C111.016 41.9421 110.351 42.5036 109.68 42.8047C109.011 43.0977 108.152 43.2441 107.103 43.2441C105.756 43.2441 104.702 42.8861 103.943 42.1699C103.191 41.4538 102.815 40.4406 102.815 39.1304C102.815 37.7388 103.339 36.689 104.389 35.981C105.438 35.2729 107.037 34.8864 109.185 34.8213L111.553 34.748V34.0278C111.553 33.1652 111.346 32.5223 110.932 32.0991C110.528 31.6678 109.896 31.4521 109.037 31.4521C108.334 31.4521 107.661 31.5539 107.016 31.7573C106.372 31.9608 105.752 32.2008 105.157 32.4775L104.215 30.4268C104.959 30.0443 105.772 29.7554 106.657 29.5601C107.541 29.3566 108.376 29.2549 109.161 29.2549C110.904 29.2549 112.218 29.6292 113.102 30.3779C113.994 31.1266 114.44 32.3026 114.44 33.9058V43H112.358ZM108.02 41.0469C109.077 41.0469 109.924 40.758 110.561 40.1802C111.205 39.5942 111.527 38.7764 111.527 37.7266V36.5547L109.768 36.6279C108.396 36.6768 107.396 36.9046 106.769 37.3115C106.148 37.7103 105.838 38.3247 105.838 39.1548C105.838 39.757 106.02 40.2249 106.384 40.5586C106.747 40.8841 107.293 41.0469 108.02 41.0469ZM130.081 29.499V31.0737L127.739 31.501C127.954 31.7858 128.132 32.1357 128.272 32.5508C128.412 32.9658 128.482 33.4053 128.482 33.8691C128.482 35.2607 127.995 36.3553 127.02 37.1528C126.045 37.9504 124.702 38.3491 122.992 38.3491C122.554 38.3491 122.158 38.3166 121.802 38.2515C121.174 38.634 120.86 39.0815 120.86 39.5942C120.86 39.9035 121.005 40.1354 121.294 40.29C121.591 40.4447 122.132 40.522 122.917 40.522H125.309C126.822 40.522 127.971 40.8394 128.755 41.4741C129.54 42.1089 129.933 43.0244 129.933 44.2207C129.933 45.7507 129.293 46.9307 128.012 47.7607C126.731 48.5908 124.88 49.0059 122.459 49.0059C120.592 49.0059 119.167 48.6803 118.183 48.0293C117.2 47.3783 116.709 46.4505 116.709 45.2461C116.709 44.416 116.973 43.7161 117.502 43.1465C118.039 42.585 118.786 42.1943 119.745 41.9746C119.357 41.8118 119.035 41.5514 118.778 41.1934C118.53 40.8271 118.406 40.4447 118.406 40.0459C118.406 39.5413 118.551 39.1141 118.84 38.7642C119.129 38.4142 119.559 38.0684 120.129 37.7266C119.418 37.4255 118.84 36.9372 118.394 36.2617C117.956 35.5781 117.737 34.7806 117.737 33.8691C117.737 32.4043 118.204 31.269 119.137 30.4634C120.079 29.6577 121.418 29.2549 123.153 29.2549C123.542 29.2549 123.947 29.2834 124.368 29.3403C124.798 29.3892 125.12 29.4421 125.335 29.499H130.081ZM119.311 45.0996C119.311 45.7181 119.592 46.1942 120.154 46.5278C120.724 46.8615 121.521 47.0283 122.546 47.0283C124.133 47.0283 125.314 46.8045 126.091 46.3569C126.867 45.9093 127.256 45.3153 127.256 44.5747C127.256 43.9888 127.041 43.5697 126.611 43.3174C126.19 43.0732 125.401 42.9512 124.244 42.9512H122.038C121.203 42.9512 120.538 43.1424 120.042 43.5249C119.555 43.9155 119.311 44.4404 119.311 45.0996ZM120.563 33.8691C120.563 34.7155 120.782 35.3665 121.22 35.8223C121.666 36.278 122.302 36.5059 123.128 36.5059C124.814 36.5059 125.657 35.6188 125.657 33.8447C125.657 32.9658 125.446 32.2904 125.025 31.8184C124.612 31.3382 123.979 31.0981 123.128 31.0981C122.286 31.0981 121.645 31.3341 121.207 31.8062C120.778 32.2782 120.563 32.9658 120.563 33.8691ZM141.211 43L140.629 41.1201H140.53C139.869 41.9421 139.204 42.5036 138.534 42.8047C137.865 43.0977 137.006 43.2441 135.956 43.2441C134.61 43.2441 133.556 42.8861 132.796 42.1699C132.044 41.4538 131.668 40.4406 131.668 39.1304C131.668 37.7388 132.192 36.689 133.242 35.981C134.291 35.2729 135.89 34.8864 138.039 34.8213L140.406 34.748V34.0278C140.406 33.1652 140.199 32.5223 139.786 32.0991C139.382 31.6678 138.749 31.4521 137.89 31.4521C137.188 31.4521 136.515 31.5539 135.87 31.7573C135.225 31.9608 134.606 32.2008 134.011 32.4775L133.068 30.4268C133.812 30.0443 134.626 29.7554 135.51 29.5601C136.395 29.3566 137.229 29.2549 138.014 29.2549C139.757 29.2549 141.071 29.6292 141.955 30.3779C142.847 31.1266 143.294 32.3026 143.294 33.9058V43H141.211ZM136.874 41.0469C137.931 41.0469 138.778 40.758 139.414 40.1802C140.059 39.5942 140.381 38.7764 140.381 37.7266V36.5547L138.621 36.6279C137.25 36.6768 136.25 36.9046 135.622 37.3115C135.002 37.7103 134.692 38.3247 134.692 39.1548C134.692 39.757 134.874 40.2249 135.237 40.5586C135.601 40.8841 136.146 41.0469 136.874 41.0469ZM154.312 29.2549C154.899 29.2549 155.382 29.2956 155.762 29.377L155.477 32.0503C155.064 31.9526 154.634 31.9038 154.188 31.9038C153.023 31.9038 152.077 32.2782 151.349 33.0269C150.631 33.7756 150.271 34.748 150.271 35.9443V43H147.359V29.499H149.64L150.023 31.8794H150.173C150.627 31.0737 151.217 30.4349 151.944 29.9629C152.681 29.4909 153.469 29.2549 154.312 29.2549ZM161.228 43H158.316V29.499H161.228V43ZM158.142 25.9224C158.142 25.4097 158.282 25.015 158.563 24.7383C158.853 24.4616 159.262 24.3232 159.79 24.3232C160.303 24.3232 160.7 24.4616 160.98 24.7383C161.269 25.015 161.414 25.4097 161.414 25.9224C161.414 26.4106 161.269 26.7972 160.98 27.082C160.7 27.3587 160.303 27.4971 159.79 27.4971C159.262 27.4971 158.853 27.3587 158.563 27.082C158.282 26.7972 158.142 26.4106 158.142 25.9224ZM177.465 43H174.539V34.6992C174.539 33.6576 174.324 32.8804 173.895 32.3677C173.473 31.855 172.8 31.5986 171.874 31.5986C170.644 31.5986 169.743 31.9567 169.172 32.6729C168.603 33.389 168.318 34.5894 168.318 36.2739V43H165.405V29.499H167.685L168.094 31.269H168.243C168.657 30.6261 169.243 30.1297 170.003 29.7798C170.763 29.4299 171.606 29.2549 172.531 29.2549C175.82 29.2549 177.465 30.9028 177.465 34.1987V43ZM203.157 33.9058C203.157 36.8517 202.327 39.106 200.666 40.6685C199.005 42.2228 196.614 43 193.49 43H188.421V25.1533H194.023C196.906 25.1533 199.15 25.9183 200.753 27.4482C202.355 28.9782 203.157 31.1307 203.157 33.9058ZM200.034 34.0034C200.034 29.731 198.006 27.5947 193.948 27.5947H191.383V40.5464H193.49C197.852 40.5464 200.034 38.3654 200.034 34.0034ZM209.665 43H206.752V29.499H209.665V43ZM206.578 25.9224C206.578 25.4097 206.718 25.015 206.999 24.7383C207.289 24.4616 207.698 24.3232 208.226 24.3232C208.739 24.3232 209.136 24.4616 209.416 24.7383C209.705 25.015 209.85 25.4097 209.85 25.9224C209.85 26.4106 209.705 26.7972 209.416 27.082C209.136 27.3587 208.739 27.4971 208.226 27.4971C207.698 27.4971 207.289 27.3587 206.999 27.082C206.718 26.7972 206.578 26.4106 206.578 25.9224ZM225.417 29.499V31.0737L223.075 31.501C223.289 31.7858 223.467 32.1357 223.607 32.5508C223.748 32.9658 223.818 33.4053 223.818 33.8691C223.818 35.2607 223.331 36.3553 222.356 37.1528C221.381 37.9504 220.038 38.3491 218.327 38.3491C217.89 38.3491 217.493 38.3166 217.137 38.2515C216.51 38.634 216.196 39.0815 216.196 39.5942C216.196 39.9035 216.34 40.1354 216.63 40.29C216.927 40.4447 217.468 40.522 218.253 40.522H220.645C222.157 40.522 223.306 40.8394 224.09 41.4741C224.876 42.1089 225.268 43.0244 225.268 44.2207C225.268 45.7507 224.628 46.9307 223.347 47.7607C222.067 48.5908 220.216 49.0059 217.794 49.0059C215.927 49.0059 214.502 48.6803 213.519 48.0293C212.535 47.3783 212.044 46.4505 212.044 45.2461C212.044 44.416 212.309 43.7161 212.838 43.1465C213.374 42.585 214.122 42.1943 215.08 41.9746C214.692 41.8118 214.37 41.5514 214.114 41.1934C213.866 40.8271 213.742 40.4447 213.742 40.0459C213.742 39.5413 213.886 39.1141 214.176 38.7642C214.465 38.4142 214.895 38.0684 215.464 37.7266C214.755 37.4255 214.176 36.9372 213.729 36.2617C213.291 35.5781 213.072 34.7806 213.072 33.8691C213.072 32.4043 213.539 31.269 214.473 30.4634C215.415 29.6577 216.754 29.2549 218.489 29.2549C218.877 29.2549 219.282 29.2834 219.703 29.3403C220.133 29.3892 220.456 29.4421 220.67 29.499H225.417ZM214.647 45.0996C214.647 45.7181 214.927 46.1942 215.49 46.5278C216.059 46.8615 216.857 47.0283 217.882 47.0283C219.468 47.0283 220.649 46.8045 221.426 46.3569C222.203 45.9093 222.591 45.3153 222.591 44.5747C222.591 43.9888 222.377 43.5697 221.947 43.3174C221.526 43.0732 220.736 42.9512 219.579 42.9512H217.373C216.538 42.9512 215.873 43.1424 215.378 43.5249C214.891 43.9155 214.647 44.4404 214.647 45.0996ZM215.899 33.8691C215.899 34.7155 216.117 35.3665 216.556 35.8223C217.001 36.278 217.638 36.5059 218.465 36.5059C220.15 36.5059 220.993 35.6188 220.993 33.8447C220.993 32.9658 220.781 32.2904 220.36 31.8184C219.947 31.3382 219.315 31.0981 218.465 31.0981C217.621 31.0981 216.981 31.3341 216.542 31.8062C216.113 32.2782 215.899 32.9658 215.899 33.8691ZM230.883 43H227.97V29.499H230.883V43ZM227.796 25.9224C227.796 25.4097 227.937 25.015 228.218 24.7383C228.507 24.4616 228.916 24.3232 229.445 24.3232C229.957 24.3232 230.354 24.4616 230.635 24.7383C230.925 25.015 231.069 25.4097 231.069 25.9224C231.069 26.4106 230.925 26.7972 230.635 27.082C230.354 27.3587 229.957 27.4971 229.445 27.4971C228.916 27.4971 228.507 27.3587 228.218 27.082C227.937 26.7972 227.796 26.4106 227.796 25.9224ZM240.166 40.9248C240.877 40.9248 241.588 40.8149 242.298 40.5952V42.7559C241.975 42.8942 241.558 43.0081 241.046 43.0977C240.542 43.1953 240.018 43.2441 239.472 43.2441C236.712 43.2441 235.332 41.8118 235.332 38.9473V31.6719H233.461V30.4023L235.469 29.3525L236.46 26.4961H238.257V29.499H242.161V31.6719H238.257V38.8984C238.257 39.5902 238.431 40.1029 238.778 40.4365C239.133 40.762 239.595 40.9248 240.166 40.9248ZM253.626 43L253.043 41.1201H252.944C252.283 41.9421 251.618 42.5036 250.949 42.8047C250.28 43.0977 249.421 43.2441 248.371 43.2441C247.025 43.2441 245.971 42.8861 245.21 42.1699C244.459 41.4538 244.082 40.4406 244.082 39.1304C244.082 37.7388 244.607 36.689 245.657 35.981C246.706 35.2729 248.305 34.8864 250.453 34.8213L252.82 34.748V34.0278C252.82 33.1652 252.614 32.5223 252.201 32.0991C251.796 31.6678 251.164 31.4521 250.304 31.4521C249.603 31.4521 248.928 31.5539 248.285 31.7573C247.64 31.9608 247.021 32.2008 246.426 32.4775L245.483 30.4268C246.227 30.0443 247.041 29.7554 247.925 29.5601C248.809 29.3566 249.643 29.2549 250.428 29.2549C252.172 29.2549 253.486 29.6292 254.369 30.3779C255.262 31.1266 255.709 32.3026 255.709 33.9058V43H253.626ZM249.288 41.0469C250.346 41.0469 251.193 40.758 251.829 40.1802C252.474 39.5942 252.796 38.7764 252.796 37.7266V36.5547L251.036 36.6279C249.664 36.6768 248.664 36.9046 248.036 37.3115C247.417 37.7103 247.107 38.3247 247.107 39.1548C247.107 39.757 247.289 40.2249 247.652 40.5586C248.016 40.8841 248.561 41.0469 249.288 41.0469ZM262.686 43H259.774V24.0059H262.686V43Z" fill="black"/>
<path d="M33.5 67C15.0308 67 0 51.9692 0 33.5C0 15.0308 15.0308 0 33.5 0C51.9692 0 67 15.0308 67 33.5C67 51.9692 51.9692 67 33.5 67ZM33.5 2.45601C16.3734 2.45601 2.45601 16.3898 2.45601 33.5C2.45601 50.6266 16.3897 64.544 33.5 64.544C50.6102 64.544 64.544 50.6102 64.544 33.5C64.544 16.3898 50.6102 2.45601 33.5 2.45601Z" fill="black"/>
<path d="M43.1884 21.2446C40.1189 21.2446 37.6135 18.7788 37.6135 15.7579C37.6135 12.7369 40.1189 10.2711 43.1884 10.2711C46.2579 10.2711 48.7633 12.7369 48.7633 15.7579C48.7633 18.7788 46.2579 21.2446 43.1884 21.2446ZM43.1884 11.3326C40.7163 11.3326 38.692 13.3084 38.692 15.7579C38.692 18.2073 40.6996 20.1832 43.1884 20.1832C45.6606 20.1832 47.6848 18.2073 47.6848 15.7579C47.6848 13.3084 45.6606 11.3326 43.1884 11.3326Z" fill="black"/>
<path d="M43.736 10.7611H42.6575V20.6242H43.736V10.7611Z" fill="black"/>
<path d="M48.183 15.1702H38.1614V16.2316H48.183V15.1702Z" fill="black"/>
<path d="M43.5372 21.0812L42.9233 20.1994C44.7153 18.9747 45.6444 17.3091 45.5448 15.4802C45.4453 13.7493 44.4332 12.1163 42.9731 11.3162L43.4875 10.3854C45.2794 11.3652 46.5071 13.341 46.6233 15.4312C46.7561 17.6357 45.661 19.6442 43.5372 21.0812Z" fill="black"/>
<path d="M42.9064 21.0976C41.214 20.2648 39.953 18.1583 39.8203 15.9865C39.6875 13.7166 40.766 11.7244 42.84 10.4018L43.4373 11.2999C41.6952 12.4103 40.7992 14.0432 40.8988 15.9211C40.9983 17.701 42.0435 19.481 43.3875 20.1505L42.9064 21.0976Z" fill="black"/>
<path d="M23.4275 23.9064C21.7185 25.7516 20.7064 26.715 20.4741 27.9234C20.3248 28.6909 19.993 25.8332 20.1589 24.3309C20.3248 22.7633 20.6567 22.3877 21.1876 22.0611C21.5028 21.8652 22.2661 21.6202 23.0293 21.4569C23.0625 21.4569 23.2781 21.6039 23.3279 21.8488C23.3943 22.1264 23.1952 22.2734 23.079 22.7143C22.9131 23.2532 23.5104 23.8084 23.4275 23.9064Z" fill="black"/>
<path d="M38.0448 35.1737C40.3344 34.4389 43.6694 33.3938 43.686 33.4264C44.3994 34.1286 45.7931 35.337 46.4734 36.7413C47.4689 38.7825 47.2034 39.746 47.2366 39.7296C47.4855 39.6317 49.7254 38.8152 52.1478 37.8191C52.3967 35.3043 51.7994 34.6185 51.285 33.8347C50.6047 32.7896 49.1282 31.8751 49.2111 31.222C49.2442 30.9933 49.012 30.3238 48.5639 30.1932C48.5142 30.1769 48.4478 30.1932 48.4312 30.1932C47.5519 30.4381 38.9904 33.1815 37.3478 33.6877C36.7672 33.8673 37.7295 35.2717 38.0448 35.1737Z" fill="black"/>
<path d="M20.0427 39.1419C19.9432 39.4685 20.0925 40.2849 20.4077 40.6115C20.4244 40.6278 17.5872 41.4443 16.2597 41.8689C16.0938 41.9179 15.6625 41.6076 15.6127 41.0851C15.5794 40.6768 15.7455 40.4646 15.9446 40.3992C17.6369 39.8767 20.0593 39.1255 20.0427 39.1419Z" fill="black"/>
<path d="M44.8478 22.6817C44.8311 22.7633 44.2505 24.7065 43.3876 24.8535C42.8401 24.9515 42.6742 24.7555 42.5912 24.6412C42.2262 24.1513 42.2594 23.2042 42.2429 23.2042C41.9276 23.3348 41.7119 23.7268 41.6621 23.8574C41.3635 24.5922 41.5128 25.0331 41.4132 25.4413C41.1975 26.3068 39.6545 27.1396 38.941 27.058C38.1281 26.9763 37.7796 25.7353 36.3196 24.4779C35.6724 23.9227 34.8097 23.3022 33.9136 22.9756C33.7809 22.9266 33.7145 22.7796 33.7312 22.5347C33.7312 22.5184 33.7312 22.4857 33.7809 22.3877C33.8307 22.3224 33.9801 22.2081 34.0962 22.0938C34.9921 21.261 35.5065 19.971 35.5397 18.5666C35.5894 17.3256 35.0917 16.1172 34.1626 15.1538C33.0343 13.9944 31.5742 13.2922 29.8487 13.2595C28.1397 13.2269 26.6133 13.7984 25.5348 14.7455C25.2859 14.9415 25.1532 15.0884 25.1532 15.0884C24.1245 16.1662 23.859 17.3582 23.776 17.7338C23.6267 18.387 23.6101 18.9259 23.6267 19.1545C23.6599 19.775 23.7595 20.2812 24.141 21.0487C24.4065 21.5713 24.8213 21.8652 24.7052 22.1265C24.6554 22.2408 24.5393 22.2734 24.3733 22.551C24.2738 22.698 24.2572 22.7796 24.2406 22.8286C24.1908 23.0246 24.224 23.1715 24.2406 23.2369C24.3401 23.6124 24.672 23.7431 24.755 23.9227C25.0039 24.4452 23.4442 25.5557 22.6312 26.4538C21.3702 27.8418 20.4411 29.981 20.2585 31.418C19.9267 34.047 20.4743 35.7943 20.9223 36.9537C20.9388 36.9863 21.0716 37.3619 21.1047 37.6068C21.1546 38.0151 21.055 38.211 21.0052 38.6846C20.972 39.1255 20.972 39.4847 21.1047 39.8113C21.3537 40.4645 21.8846 41.036 22.6644 41.2483C22.8303 41.2973 23.7428 41.5749 24.589 41.0524C24.9872 40.8074 25.1034 40.5298 25.203 40.3012C25.2362 40.2032 25.3191 39.9093 25.2527 39.9093C25.0868 39.942 24.7218 39.9256 24.3069 39.6154C24.0249 39.4031 23.7428 38.9295 23.7263 38.407C23.7096 38.0804 23.7927 37.8355 23.8756 37.6558C23.9087 37.6068 23.9419 37.4925 24.1577 37.2802C24.2572 37.1659 24.4729 37.0516 24.4729 37.0516C24.4895 37.0026 24.224 36.8394 24.0581 36.4638C23.3281 34.7818 24.224 32.512 24.755 32.2344C24.838 32.1854 24.1577 35.9412 26.0823 37.2802C26.0989 37.2966 25.0204 37.6232 24.9872 37.6395C24.8213 37.7701 24.672 38.1294 24.8048 38.4723C24.9209 38.7499 25.1366 39.0928 25.5845 39.0438C25.7173 39.0275 26.5635 38.7499 26.5801 38.7499C26.6298 38.7499 26.7128 39.648 26.3644 40.4318C26.2648 40.6605 26.0325 41.1177 25.485 41.5912C25.4518 41.6239 25.4353 41.6402 25.4353 41.6402C25.9827 42.571 27.1608 43.7631 28.8697 46.9147C29.0855 47.3066 29.2016 47.6658 29.2679 47.8291C29.2679 47.8291 29.2679 47.8781 29.2679 47.9271C29.3178 48.6783 27.0115 50.3275 26.7128 51.9931C26.6465 52.4014 26.7128 52.728 26.8788 53.3812C27.3599 55.3734 28.9859 57.8718 30.4294 57.6432C31.4249 57.4799 32.1716 56.0755 32.3043 55.0631C32.4536 53.871 31.8563 53.5118 32.072 52.385C32.354 50.8501 33.6814 50.7848 34.6603 48.7109C35.1415 47.6821 35.2576 46.784 35.2742 46.5554C35.5562 43.861 33.7809 42.0648 34.3119 41.7872C34.4447 41.7055 36.8338 42.5384 37.3482 44.2856C37.9622 46.3758 35.7388 47.8618 36.585 50.3112C36.8173 50.9644 37.1823 51.3889 37.4146 51.6666C38.7087 53.1362 41.0648 54.018 41.8778 53.2668C42.4917 52.6953 42.2262 51.193 41.7783 50.4908C41.6953 50.3765 41.4795 50.0663 41.2307 49.7233C40.8325 49.2008 40.6998 49.1028 40.6002 48.9722C39.9698 48.0087 41.9442 45.9022 42.5415 43.3548C42.6079 43.1099 42.6908 42.669 42.6079 42.1301C42.5083 41.3463 42.1101 40.7748 41.8612 40.4482C40.4012 38.5539 37.8128 37.3129 36.4688 35.1084C35.2411 33.0836 35.3738 30.7648 35.9047 30.5362C36.3859 30.3239 37.2819 31.8915 38.9908 31.7935C39.1567 31.7772 39.2728 31.7609 39.3724 31.7445C40.8491 31.4669 42.2429 29.7523 43.4209 28.3317C44.4164 27.1396 44.5159 26.9763 45.329 25.8006C45.6442 25.3434 45.7272 25.1964 45.8101 24.6902C45.976 23.2859 44.8478 22.6817 44.8478 22.6817ZM33.5653 16.4111C33.8806 16.803 34.0465 17.2276 34.0465 17.2276C34.0962 17.3746 34.3285 17.9951 34.3119 18.6319C34.2788 19.7587 34.0465 20.3629 33.3827 21.114C33.333 21.163 33.0509 21.4243 33.0012 21.4569C32.7191 21.6366 32.6693 21.6856 32.354 21.8325C31.8895 22.0122 31.3419 22.1101 30.7281 22.1428C28.2226 22.2571 26.5303 20.7058 26.5967 18.7789C26.6298 17.8645 27.0115 16.9663 27.7581 16.2478C28.9859 15.1048 30.6451 15.1864 30.9437 15.1864C32.1716 15.2027 33.0509 15.7416 33.5653 16.4111Z" fill="black"/>
</svg>
