<svg width="260" height="66" viewBox="0 0 260 66" fill="none" xmlns="http://www.w3.org/2000/svg">
<g clip-path="url(#clip0_121:849)">
<path d="M91.3046 32.8224H97.8467V41.6486C96.7766 41.9933 95.7471 42.2378 94.7581 42.3821C93.7772 42.5264 92.7152 42.5985 91.5721 42.5985C88.8806 42.5985 86.8053 41.8129 85.346 40.2417C83.8868 38.6625 83.1572 36.4379 83.1572 33.568C83.1572 30.738 83.9801 28.5255 85.6257 26.9302C87.2714 25.3269 89.5373 24.5253 92.4233 24.5253C94.2798 24.5253 96.039 24.8779 97.7009 25.5834L96.6794 27.9764C95.2364 27.319 93.7933 26.9903 92.3504 26.9903C90.4534 26.9903 88.9535 27.5796 87.8511 28.7579C86.7485 29.9364 86.1972 31.5478 86.1972 33.592C86.1972 35.7404 86.6917 37.3758 87.6808 38.4981C88.6779 39.6124 90.1088 40.1695 91.9733 40.1695C92.9138 40.1695 93.919 40.0533 94.9891 39.8208V35.2875H91.3046V32.8224ZM110.238 42.3581L109.666 40.5062H109.57C108.921 41.316 108.269 41.8691 107.611 42.1657C106.955 42.4543 106.112 42.5985 105.082 42.5985C103.761 42.5985 102.727 42.2459 101.982 41.5404C101.244 40.8349 100.875 39.8369 100.875 38.5462C100.875 37.1754 101.389 36.1413 102.419 35.4438C103.449 34.7463 105.017 34.3656 107.125 34.3014L109.448 34.2292V33.5198C109.448 32.6701 109.245 32.0367 108.839 31.6199C108.443 31.195 107.822 30.9825 106.98 30.9825C106.29 30.9825 105.63 31.0828 104.997 31.2832C104.365 31.4836 103.757 31.7201 103.173 31.9926L102.249 29.9725C102.979 29.5957 103.777 29.3111 104.644 29.1188C105.512 28.9183 106.331 28.8181 107.101 28.8181C108.811 28.8181 110.101 29.1868 110.968 29.9244C111.843 30.6619 112.281 31.8203 112.281 33.3996V42.3581H110.238ZM105.982 40.4341C107.019 40.4341 107.85 40.1495 108.475 39.5804C109.107 39.0031 109.423 38.1975 109.423 37.1634V36.009L107.697 36.0811C106.351 36.1292 105.37 36.3536 104.754 36.7545C104.145 37.1473 103.842 37.7525 103.842 38.5703C103.842 39.1635 104.02 39.6244 104.377 39.9531C104.733 40.2738 105.269 40.4341 105.982 40.4341ZM127.627 29.0586V30.6098L125.329 31.0307C125.54 31.3112 125.714 31.6559 125.852 32.0648C125.989 32.4736 126.058 32.9066 126.058 33.3634C126.058 34.7343 125.58 35.8125 124.624 36.5981C123.667 37.3838 122.349 37.7766 120.672 37.7766C120.242 37.7766 119.853 37.7446 119.504 37.6804C118.888 38.0572 118.58 38.4981 118.58 39.0031C118.58 39.3078 118.722 39.5362 119.005 39.6885C119.297 39.8409 119.828 39.9171 120.598 39.9171H122.945C124.429 39.9171 125.556 40.2297 126.326 40.8549C127.096 41.4803 127.482 42.3821 127.482 43.5605C127.482 45.0677 126.853 46.2301 125.597 47.0477C124.34 47.8654 122.524 48.2743 120.149 48.2743C118.317 48.2743 116.918 47.9536 115.953 47.3123C114.989 46.671 114.507 45.7571 114.507 44.5706C114.507 43.7529 114.766 43.0635 115.285 42.5024C115.812 41.9493 116.545 41.5644 117.486 41.348C117.105 41.1876 116.789 40.9311 116.537 40.5784C116.294 40.2176 116.172 39.8409 116.172 39.4481C116.172 38.951 116.315 38.5302 116.598 38.1855C116.881 37.8407 117.303 37.5001 117.863 37.1634C117.165 36.8668 116.598 36.3858 116.16 35.7203C115.731 35.0469 115.516 34.2613 115.516 33.3634C115.516 31.9205 115.974 30.8022 116.889 30.0086C117.814 29.2149 119.127 28.8181 120.829 28.8181C121.211 28.8181 121.608 28.8462 122.022 28.9022C122.443 28.9504 122.759 29.0025 122.97 29.0586H127.627ZM117.06 44.4263C117.06 45.0356 117.336 45.5046 117.887 45.8332C118.446 46.1619 119.228 46.3262 120.234 46.3262C121.791 46.3262 122.95 46.1058 123.712 45.6649C124.473 45.2239 124.855 44.6388 124.855 43.9093C124.855 43.3321 124.644 42.9193 124.222 42.6707C123.809 42.4302 123.035 42.31 121.9 42.31H119.735C118.917 42.31 118.264 42.4983 117.777 42.8751C117.299 43.2599 117.06 43.777 117.06 44.4263ZM118.288 33.3634C118.288 34.1972 118.503 34.8385 118.933 35.2875C119.371 35.7364 119.994 35.9609 120.805 35.9609C122.459 35.9609 123.286 35.087 123.286 33.3394C123.286 32.4736 123.08 31.8083 122.666 31.3434C122.261 30.8703 121.64 30.6338 120.805 30.6338C119.979 30.6338 119.35 30.8663 118.921 31.3313C118.499 31.7963 118.288 32.4736 118.288 33.3634ZM138.547 42.3581L137.975 40.5062H137.879C137.23 41.316 136.578 41.8691 135.92 42.1657C135.264 42.4543 134.421 42.5985 133.391 42.5985C132.07 42.5985 131.036 42.2459 130.291 41.5404C129.553 40.8349 129.184 39.8369 129.184 38.5462C129.184 37.1754 129.698 36.1413 130.728 35.4438C131.757 34.7463 133.326 34.3656 135.434 34.3014L137.757 34.2292V33.5198C137.757 32.6701 137.554 32.0367 137.148 31.6199C136.752 31.195 136.131 30.9825 135.289 30.9825C134.599 30.9825 133.939 31.0828 133.306 31.2832C132.674 31.4836 132.066 31.7201 131.482 31.9926L130.558 29.9725C131.287 29.5957 132.086 29.3111 132.954 29.1188C133.821 28.9183 134.64 28.8181 135.41 28.8181C137.121 28.8181 138.41 29.1868 139.276 29.9244C140.152 30.6619 140.59 31.8203 140.59 33.3996V42.3581H138.547ZM134.291 40.4341C135.328 40.4341 136.159 40.1495 136.784 39.5804C137.416 39.0031 137.732 38.1975 137.732 37.1634V36.009L136.006 36.0811C134.66 36.1292 133.679 36.3536 133.063 36.7545C132.455 37.1473 132.151 37.7525 132.151 38.5703C132.151 39.1635 132.329 39.6244 132.686 39.9531C133.042 40.2738 133.577 40.4341 134.291 40.4341ZM151.401 28.8181C151.976 28.8181 152.451 28.8582 152.823 28.9384L152.543 31.5718C152.138 31.4756 151.716 31.4275 151.279 31.4275C150.136 31.4275 149.208 31.7963 148.494 32.5338C147.789 33.2713 147.436 34.2292 147.436 35.4077V42.3581H144.579V29.0586H146.816L147.193 31.4034H147.339C147.785 30.6098 148.364 29.9805 149.078 29.5156C149.8 29.0506 150.574 28.8181 151.401 28.8181ZM158.186 42.3581H155.329V29.0586H158.186V42.3581ZM155.158 25.5354C155.158 25.0303 155.296 24.6415 155.572 24.3689C155.856 24.0964 156.257 23.96 156.775 23.96C157.278 23.96 157.668 24.0964 157.943 24.3689C158.226 24.6415 158.369 25.0303 158.369 25.5354C158.369 26.0163 158.226 26.3971 157.943 26.6777C157.668 26.9502 157.278 27.0866 156.775 27.0866C156.257 27.0866 155.856 26.9502 155.572 26.6777C155.296 26.3971 155.158 26.0163 155.158 25.5354ZM174.116 42.3581H171.246V34.1812C171.246 33.1551 171.035 32.3895 170.614 31.8845C170.2 31.3794 169.54 31.1268 168.631 31.1268C167.424 31.1268 166.54 31.4796 165.981 32.1851C165.422 32.8905 165.142 34.073 165.142 35.7324V42.3581H162.284V29.0586H164.521L164.923 30.8022H165.069C165.475 30.1689 166.049 29.6799 166.795 29.3352C167.542 28.9905 168.368 28.8181 169.276 28.8181C172.503 28.8181 174.116 30.4414 174.116 33.6881V42.3581ZM199.324 33.3996C199.324 36.3015 198.509 38.5222 196.88 40.0614C195.25 41.5925 192.904 42.3581 189.839 42.3581H184.866V24.7777H190.362C193.191 24.7777 195.392 25.5313 196.965 27.0384C198.537 28.5455 199.324 30.6659 199.324 33.3996ZM196.26 33.4957C196.26 29.2871 194.27 27.1827 190.289 27.1827H187.772V39.9411H189.839C194.119 39.9411 196.26 37.7926 196.26 33.4957ZM205.709 42.3581H202.851V29.0586H205.709V42.3581ZM202.68 25.5354C202.68 25.0303 202.818 24.6415 203.094 24.3689C203.378 24.0964 203.779 23.96 204.297 23.96C204.8 23.96 205.19 24.0964 205.465 24.3689C205.749 24.6415 205.891 25.0303 205.891 25.5354C205.891 26.0163 205.749 26.3971 205.465 26.6777C205.19 26.9502 204.8 27.0866 204.297 27.0866C203.779 27.0866 203.378 26.9502 203.094 26.6777C202.818 26.3971 202.68 26.0163 202.68 25.5354ZM221.164 29.0586V30.6098L218.866 31.0307C219.076 31.3112 219.251 31.6559 219.388 32.0648C219.527 32.4736 219.595 32.9066 219.595 33.3634C219.595 34.7343 219.117 35.8125 218.161 36.5981C217.204 37.3838 215.887 37.7766 214.208 37.7766C213.779 37.7766 213.389 37.7446 213.041 37.6804C212.425 38.0572 212.117 38.4981 212.117 39.0031C212.117 39.3078 212.259 39.5362 212.543 39.6885C212.834 39.8409 213.365 39.9171 214.135 39.9171H216.482C217.966 39.9171 219.092 40.2297 219.862 40.8549C220.633 41.4803 221.018 42.3821 221.018 43.5605C221.018 45.0677 220.389 46.2301 219.133 47.0477C217.877 47.8654 216.061 48.2743 213.685 48.2743C211.853 48.2743 210.455 47.9536 209.49 47.3123C208.525 46.671 208.043 45.7571 208.043 44.5706C208.043 43.7529 208.303 43.0635 208.822 42.5024C209.348 41.9493 210.082 41.5644 211.022 41.348C210.641 41.1876 210.325 40.9311 210.074 40.5784C209.831 40.2176 209.709 39.8409 209.709 39.4481C209.709 38.951 209.851 38.5302 210.135 38.1855C210.419 37.8407 210.84 37.5001 211.399 37.1634C210.703 36.8668 210.135 36.3858 209.696 35.7203C209.267 35.0469 209.052 34.2613 209.052 33.3634C209.052 31.9205 209.51 30.8022 210.427 30.0086C211.351 29.2149 212.664 28.8181 214.366 28.8181C214.747 28.8181 215.144 28.8462 215.558 28.9022C215.979 28.9504 216.296 29.0025 216.506 29.0586H221.164ZM210.597 44.4263C210.597 45.0356 210.872 45.5046 211.424 45.8332C211.983 46.1619 212.766 46.3262 213.771 46.3262C215.327 46.3262 216.486 46.1058 217.248 45.6649C218.01 45.2239 218.391 44.6388 218.391 43.9093C218.391 43.3321 218.181 42.9193 217.759 42.6707C217.346 42.4302 216.571 42.31 215.436 42.31H213.272C212.453 42.31 211.8 42.4983 211.314 42.8751C210.836 43.2599 210.597 43.777 210.597 44.4263ZM211.825 33.3634C211.825 34.1972 212.039 34.8385 212.47 35.2875C212.907 35.7364 213.532 35.9609 214.343 35.9609C215.996 35.9609 216.823 35.087 216.823 33.3394C216.823 32.4736 216.616 31.8083 216.202 31.3434C215.797 30.8703 215.177 30.6338 214.343 30.6338C213.515 30.6338 212.887 30.8663 212.457 31.3313C212.035 31.7963 211.825 32.4736 211.825 33.3634ZM226.527 42.3581H223.669V29.0586H226.527V42.3581ZM223.498 25.5354C223.498 25.0303 223.637 24.6415 223.912 24.3689C224.196 24.0964 224.597 23.96 225.116 23.96C225.618 23.96 226.008 24.0964 226.284 24.3689C226.568 24.6415 226.709 25.0303 226.709 25.5354C226.709 26.0163 226.568 26.3971 226.284 26.6777C226.008 26.9502 225.618 27.0866 225.116 27.0866C224.597 27.0866 224.196 26.9502 223.912 26.6777C223.637 26.3971 223.498 26.0163 223.498 25.5354ZM235.635 40.3138C236.332 40.3138 237.029 40.2056 237.727 39.9892V42.1176C237.41 42.2538 237 42.366 236.498 42.4543C236.003 42.5505 235.489 42.5985 234.953 42.5985C232.246 42.5985 230.892 41.1876 230.892 38.3659V31.199H229.056V29.9484L231.026 28.9143L231.999 26.1005H233.762V29.0586H237.592V31.199H233.762V38.3177C233.762 38.9992 233.932 39.5042 234.273 39.8328C234.622 40.1535 235.075 40.3138 235.635 40.3138ZM248.841 42.3581L248.269 40.5062H248.171C247.523 41.316 246.87 41.8691 246.214 42.1657C245.558 42.4543 244.715 42.5985 243.685 42.5985C242.364 42.5985 241.33 42.2459 240.584 41.5404C239.846 40.8349 239.477 39.8369 239.477 38.5462C239.477 37.1754 239.992 36.1413 241.022 35.4438C242.051 34.7463 243.62 34.3656 245.728 34.3014L248.05 34.2292V33.5198C248.05 32.6701 247.848 32.0367 247.442 31.6199C247.045 31.195 246.425 30.9825 245.581 30.9825C244.893 30.9825 244.232 31.0828 243.6 31.2832C242.967 31.4836 242.36 31.7201 241.776 31.9926L240.852 29.9725C241.581 29.5957 242.38 29.3111 243.247 29.1188C244.114 28.9183 244.933 28.8181 245.703 28.8181C247.414 28.8181 248.703 29.1868 249.57 29.9244C250.446 30.6619 250.884 31.8203 250.884 33.3996V42.3581H248.841ZM244.584 40.4341C245.622 40.4341 246.453 40.1495 247.078 39.5804C247.71 39.0031 248.026 38.1975 248.026 37.1634V36.009L246.3 36.0811C244.954 36.1292 243.973 36.3536 243.356 36.7545C242.748 37.1473 242.445 37.7525 242.445 38.5703C242.445 39.1635 242.623 39.6244 242.979 39.9531C243.336 40.2738 243.871 40.4341 244.584 40.4341ZM257.73 42.3581H254.873V23.6475H257.73V42.3581Z" fill="white"/>
<path d="M33.1373 66C14.868 66 0 51.1936 0 33C0 14.8065 14.868 0 33.1373 0C51.4065 0 66.2745 14.8065 66.2745 33C66.2745 51.1936 51.4065 66 33.1373 66ZM33.1373 2.41936C16.1961 2.41936 2.42942 16.1451 2.42942 33C2.42942 49.871 16.2123 63.5807 33.1373 63.5807C50.0622 63.5807 63.8451 49.8549 63.8451 33C63.8451 16.1451 50.0622 2.41936 33.1373 2.41936Z" fill="white"/>
<path d="M41.2941 21.323C38.2065 21.323 35.6863 18.8133 35.6863 15.7384C35.6863 12.6636 38.2065 10.1538 41.2941 10.1538C44.3817 10.1538 46.902 12.6636 46.902 15.7384C46.902 18.8133 44.3817 21.323 41.2941 21.323ZM41.2941 11.2341C38.8073 11.2341 36.7711 13.2453 36.7711 15.7384C36.7711 18.2316 38.7906 20.2426 41.2941 20.2426C43.7809 20.2426 45.8171 18.2316 45.8171 15.7384C45.8171 13.2453 43.7809 11.2341 41.2941 11.2341Z" fill="white"/>
<path d="M41.804 11.1694H40.7844V20.3079H41.804V11.1694Z" fill="white"/>
<path d="M46.9019 15.231H36.7058V16.2463H46.9019V15.231Z" fill="white"/>
<path d="M42.31 21.3233L41.804 20.4862C43.2811 19.3235 44.0471 17.7423 43.965 16.0061C43.8829 14.3629 43.0485 12.8126 41.845 12.0531L42.269 11.1694C43.7462 12.0996 44.7582 13.9753 44.854 15.9596C44.9634 18.0524 44.0471 19.9591 42.31 21.3233Z" fill="white"/>
<path d="M41.3563 21.3233C39.9294 20.5327 38.8662 18.5329 38.7543 16.4712C38.6425 14.3164 39.5517 12.4251 41.3003 11.1694L41.8039 12.022C40.3351 13.0762 39.5797 14.6419 39.6636 16.4246C39.7475 18.1144 40.6288 19.8041 41.762 20.4396L41.3563 21.3233Z" fill="white"/>
<path d="M22.424 23.963C20.8505 25.9517 19.9184 26.9901 19.7046 28.2924C19.5671 29.1196 19.2615 26.0397 19.4143 24.4207C19.5671 22.7311 19.8726 22.3264 20.3615 21.9744C20.6518 21.7632 21.3546 21.4992 22.0575 21.3232C22.0879 21.3232 22.2866 21.4816 22.3324 21.7456C22.3936 22.0448 22.2102 22.2032 22.1033 22.6784C21.9505 23.2591 22.5005 23.8574 22.424 23.963Z" fill="white"/>
<path d="M36.5209 35.2373C38.6939 34.5337 41.859 33.533 41.8748 33.5643C42.5519 34.2367 43.8746 35.3936 44.5202 36.7384C45.4649 38.6928 45.213 39.6153 45.2445 39.5997C45.4807 39.5059 47.6065 38.724 49.9054 37.7703C50.1417 35.3624 49.5748 34.7056 49.0867 33.9551C48.4411 32.9545 47.0396 32.0789 47.1184 31.4535C47.1499 31.2346 46.9294 30.5935 46.5043 30.4684C46.457 30.4528 46.394 30.4684 46.3782 30.4684C45.5436 30.703 37.4184 33.3297 35.8595 33.8145C35.3085 33.9865 36.2218 35.3311 36.5209 35.2373Z" fill="white"/>
<path d="M19.0175 38.5848C18.9109 38.9489 19.0352 39.8773 19.3724 40.2414C19.3901 40.2596 16.3731 41.1698 14.9711 41.625C14.7936 41.6795 14.3322 41.3337 14.279 40.7511C14.2435 40.296 14.4209 40.0593 14.6339 39.9865C16.4442 39.4039 19.0352 38.5666 19.0175 38.5848Z" fill="white"/>
<path d="M42.9221 22.4704C42.9063 22.5508 42.3524 24.4624 41.5295 24.6069C41.0073 24.7033 40.849 24.5106 40.7699 24.398C40.4218 23.9162 40.4534 22.9845 40.4376 22.9845C40.1369 23.113 39.9312 23.4985 39.8837 23.627C39.5988 24.3499 39.7413 24.7837 39.6463 25.1852C39.4406 26.0366 37.9689 26.8559 37.2885 26.7755C36.513 26.6953 36.1807 25.4743 34.7881 24.2375C34.1709 23.6912 33.348 23.0808 32.4935 22.7595C32.3669 22.7113 32.3194 22.4544 32.3353 22.2133C32.3353 22.1973 32.3353 22.1813 32.3353 22.1651C32.5093 22.0527 32.6676 21.9242 32.81 21.7796C33.6646 20.9765 34.1552 19.8198 34.2026 18.4223C34.2501 17.2014 33.7753 16.0126 32.8891 15.0649C31.813 13.9244 30.2622 13.2336 28.6164 13.2015C26.9865 13.1693 25.5306 13.7316 24.502 14.6633C24.2645 14.8561 24.138 15.0007 24.138 15.0007C23.1568 16.0608 22.9037 17.2336 22.8245 17.603C22.6821 18.2455 22.6663 18.7757 22.6821 19.0005C22.7138 19.6111 22.8087 20.109 23.1727 20.864C23.4259 21.3781 23.8215 21.6672 23.7107 21.9242C23.6633 22.0367 23.5525 22.0688 23.3942 22.3419C23.2992 22.4864 23.2835 22.5668 23.2676 22.615C23.2201 22.8077 23.2518 22.9523 23.2676 23.0166C23.3626 23.3861 23.679 23.5145 23.7582 23.6912C23.9955 24.2053 22.508 25.2977 21.7326 26.1812C20.53 27.5466 19.6437 29.651 19.4697 31.0646C19.1532 33.6509 19.6753 35.3698 20.1026 36.5103C20.1185 36.5425 20.2451 36.9119 20.2767 37.1529C20.3242 37.5545 20.2609 37.7633 20.2134 38.2131C20.1818 38.6468 20.2134 39.0323 20.2767 39.2573C20.4666 39.9159 21.0204 40.5103 21.7485 40.7191C21.9067 40.7673 22.7771 41.0403 23.5841 40.5263C23.9639 40.2853 24.0747 40.0122 24.1696 39.7874C24.2013 39.6909 24.2804 39.4018 24.2171 39.4018C24.0588 39.434 23.7107 39.4179 23.3151 39.1127C23.0461 38.9039 22.7771 38.438 22.7612 37.924C22.7454 37.6027 22.8245 37.3617 22.9037 37.185C22.9353 37.1369 22.9669 37.0243 23.1727 36.8156C23.2676 36.7031 23.4734 36.5907 23.4734 36.5907C23.4891 36.5425 23.236 36.3818 23.0777 36.0124C22.3814 34.3577 23.236 32.1248 23.7424 31.8517C23.8215 31.8036 23.1727 35.4982 25.0084 36.8156C25.0241 36.8316 23.9955 37.1529 23.9639 37.1689C23.8056 37.2974 23.6633 37.6509 23.7898 37.9882C23.9006 38.2613 24.1063 38.5986 24.5336 38.5505C24.6602 38.5344 25.4673 38.2613 25.4831 38.2613C25.5306 38.2613 25.6097 39.1448 25.2774 39.9159C25.1825 40.1408 24.9609 40.5906 24.4386 41.0565C24.407 41.0885 24.3912 41.1046 24.3912 41.1046C24.9134 42.0202 26.037 43.193 27.667 46.2933C27.8726 46.6788 27.9834 47.0322 28.0468 47.1928C28.0468 47.1928 28.0468 47.241 28.0468 47.2892C28.0942 48.0282 25.8945 49.6506 25.6097 51.2892C25.5464 51.6908 25.6097 52.0121 25.768 52.6547C26.2269 54.6145 27.7777 57.0722 29.1545 56.8474C30.1039 56.6867 30.8161 55.3051 30.9426 54.3092C31.0851 53.1366 30.5154 52.7831 30.7212 51.6748C30.9902 50.1647 32.2561 50.1005 33.1898 48.0603C33.6487 47.0483 33.7595 46.1647 33.7753 45.9398C34.0444 43.2894 32.351 41.5223 32.8575 41.2492C32.9841 41.1689 35.2629 41.9882 35.7534 43.707C36.339 45.7632 34.2184 47.225 35.0254 49.6346C35.247 50.2772 35.5951 50.6949 35.8167 50.9679C37.051 52.4136 39.2982 53.2811 40.0736 52.5422C40.6591 51.9799 40.4059 50.502 39.9786 49.8113C39.8995 49.6988 39.6938 49.3937 39.4564 49.0563C39.0767 48.5422 38.95 48.4458 38.8551 48.3174C38.2538 47.3696 40.1369 45.2973 40.7066 42.7913C40.7699 42.5504 40.849 42.1166 40.7699 41.5865C40.6749 40.8155 40.2951 40.2533 40.0578 39.932C38.6652 38.0686 36.1965 36.8476 34.9147 34.679C33.7437 32.6871 33.8703 30.406 34.3766 30.1811C34.8355 29.9723 35.6901 31.5144 37.32 31.418C37.4784 31.402 37.5891 31.3859 37.684 31.3699C39.0925 31.0968 40.4218 29.4101 41.5453 28.0125C42.4948 26.8398 42.5898 26.6791 43.3652 25.5225C43.6659 25.0728 43.745 24.9282 43.8241 24.4302C43.9981 23.0648 42.9221 22.4704 42.9221 22.4704ZM32.5252 16.3982C32.6992 16.6552 32.9207 17.1371 32.9207 17.1371C32.9682 17.2818 33.1423 17.7476 33.1265 18.3901C33.0949 19.4985 32.7308 20.366 32.082 20.9925C32.0346 21.0407 31.9871 21.0728 31.9397 21.121C31.6706 21.3298 31.3858 21.4905 31.0851 21.6351C30.642 21.8118 30.1198 21.9242 29.5501 21.9564C27.5562 21.9564 25.5306 20.8158 25.5306 18.6472C25.5306 17.7476 25.9262 16.8641 26.6383 16.1572C27.8093 15.0327 29.3919 15.1131 29.6767 15.1131C31.1484 15.1131 31.7813 15.5147 32.5252 16.3982Z" fill="white"/>
</g>
<defs>
<clipPath id="clip0_121:849">
<rect width="260" height="66" fill="white"/>
</clipPath>
</defs>
</svg>
