<svg width="180" height="46" viewBox="0 0 180 46" fill="none" xmlns="http://www.w3.org/2000/svg">
<path d="M63.2108 22.8763H67.74V29.028C66.9991 29.2682 66.2864 29.4386 65.6017 29.5392C64.9226 29.6397 64.1874 29.69 63.396 29.69C61.5327 29.69 60.0959 29.1425 59.0856 28.0474C58.0754 26.9467 57.5703 25.3962 57.5703 23.396C57.5703 21.4236 58.14 19.8815 59.2793 18.7697C60.4186 17.6522 61.9873 17.0935 63.9853 17.0935C65.2705 17.0935 66.4885 17.3393 67.639 17.831L66.9318 19.4988C65.9328 19.0407 64.9338 18.8116 63.9348 18.8116C62.6215 18.8116 61.5831 19.2223 60.8199 20.0435C60.0566 20.8649 59.6749 21.988 59.6749 23.4127C59.6749 24.9101 60.0173 26.0499 60.702 26.8321C61.3923 27.6087 62.3829 27.9971 63.6738 27.9971C64.3249 27.9971 65.0208 27.9161 65.7616 27.754V24.5944H63.2108V22.8763ZM76.3185 29.5224L75.9227 28.2317H75.8558C75.4068 28.7961 74.9551 29.1816 74.4999 29.3883C74.0454 29.5895 73.462 29.69 72.7489 29.69C71.8344 29.69 71.1185 29.4442 70.6027 28.9525C70.0916 28.4608 69.8365 27.7652 69.8365 26.8657C69.8365 25.9102 70.1923 25.1895 70.9054 24.7034C71.6185 24.2172 72.704 23.9519 74.1634 23.9072L75.7716 23.8569V23.3624C75.7716 22.7702 75.6309 22.3288 75.3503 22.0382C75.0758 21.7421 74.6461 21.594 74.0627 21.594C73.5854 21.594 73.1282 21.6639 72.6902 21.8035C72.2523 21.9433 71.8316 22.108 71.4275 22.298L70.7875 20.8901C71.293 20.6275 71.8454 20.4291 72.4461 20.295C73.0468 20.1553 73.6137 20.0855 74.1468 20.0855C75.3309 20.0855 76.2233 20.3425 76.824 20.8565C77.4296 21.3705 77.733 22.1779 77.733 23.2786V29.5224H76.3185ZM73.3723 28.1815C74.0902 28.1815 74.6654 27.9831 75.0978 27.5864C75.5358 27.1841 75.7544 26.6226 75.7544 25.9019V25.0973L74.5592 25.1475C73.6275 25.1811 72.9482 25.3375 72.522 25.6169C72.1006 25.8907 71.8902 26.3125 71.8902 26.8824C71.8902 27.2959 72.0137 27.6171 72.2606 27.8462C72.5075 28.0697 72.8785 28.1815 73.3723 28.1815ZM88.3571 20.2531V21.3342L86.7661 21.6276C86.9123 21.8231 87.033 22.0633 87.1282 22.3483C87.2234 22.6333 87.2709 22.935 87.2709 23.2534C87.2709 24.2089 86.9399 24.9604 86.2778 25.5079C85.6158 26.0555 84.7034 26.3293 83.542 26.3293C83.244 26.3293 82.9751 26.3069 82.7337 26.2623C82.3068 26.5249 82.0937 26.8321 82.0937 27.1841C82.0937 27.3965 82.1923 27.5557 82.3882 27.6618C82.5902 27.768 82.9578 27.8211 83.4909 27.8211H85.1158C86.1434 27.8211 86.9233 28.039 87.4565 28.4748C87.9896 28.9106 88.2565 29.5392 88.2565 30.3605C88.2565 31.411 87.8213 32.2211 86.9516 32.791C86.0813 33.3609 84.824 33.6459 83.1799 33.6459C81.9116 33.6459 80.9434 33.4223 80.2751 32.9754C79.6075 32.5284 79.2737 31.8914 79.2737 31.0645C79.2737 30.4946 79.453 30.0141 79.8123 29.623C80.1771 29.2375 80.6847 28.9692 81.3365 28.8184C81.0723 28.7066 80.8537 28.5279 80.6792 28.2821C80.5109 28.0306 80.4268 27.768 80.4268 27.4942C80.4268 27.1478 80.5254 26.8545 80.7213 26.6143C80.9178 26.374 81.2096 26.1365 81.5971 25.9019C81.1144 25.6951 80.7213 25.3599 80.4185 24.8961C80.1213 24.4268 79.9723 23.8792 79.9723 23.2534C79.9723 22.2478 80.2896 21.4683 80.9233 20.9152C81.5633 20.362 82.4723 20.0855 83.6509 20.0855C83.9151 20.0855 84.1902 20.105 84.4765 20.1441C84.7682 20.1777 84.9868 20.214 85.133 20.2531H88.3571ZM81.0413 30.9639C81.0413 31.3886 81.2323 31.7154 81.6137 31.9445C82.0013 32.1736 82.5427 32.2881 83.2385 32.2881C84.3165 32.2881 85.1192 32.1345 85.6468 31.8272C86.1737 31.5198 86.4378 31.112 86.4378 30.6036C86.4378 30.2013 86.2916 29.9136 85.9999 29.7403C85.7137 29.5727 85.1778 29.4889 84.3923 29.4889H82.8937C82.3268 29.4889 81.8751 29.6202 81.5378 29.8828C81.2068 30.151 81.0413 30.5113 81.0413 30.9639ZM81.8916 23.2534C81.8916 23.8345 82.0406 24.2815 82.3378 24.5944C82.6413 24.9073 83.073 25.0638 83.6344 25.0638C84.7792 25.0638 85.3516 24.4547 85.3516 23.2367C85.3516 22.6333 85.2089 22.1696 84.9227 21.8455C84.642 21.5158 84.2123 21.351 83.6344 21.351C83.062 21.351 82.6268 21.513 82.3296 21.8371C82.0378 22.1612 81.8916 22.6333 81.8916 23.2534ZM95.9171 29.5224L95.5213 28.2317H95.4544C95.0054 28.7961 94.5537 29.1816 94.0985 29.3883C93.644 29.5895 93.0606 29.69 92.3475 29.69C91.433 29.69 90.7172 29.4442 90.2013 28.9525C89.6903 28.4608 89.4351 27.7652 89.4351 26.8657C89.4351 25.9102 89.7909 25.1895 90.504 24.7034C91.2165 24.2172 92.3027 23.9519 93.762 23.9072L95.3703 23.8569V23.3624C95.3703 22.7702 95.2296 22.3288 94.9489 22.0382C94.6744 21.7421 94.2447 21.594 93.6613 21.594C93.184 21.594 92.7268 21.6639 92.2889 21.8035C91.8509 21.9433 91.4303 22.108 91.0261 22.298L90.3861 20.8901C90.8909 20.6275 91.444 20.4291 92.0447 20.295C92.6454 20.1553 93.2123 20.0855 93.7454 20.0855C94.9296 20.0855 95.822 20.3425 96.422 20.8565C97.0282 21.3705 97.3316 22.1779 97.3316 23.2786V29.5224H95.9171ZM92.9709 28.1815C93.6889 28.1815 94.264 27.9831 94.6965 27.5864C95.1344 27.1841 95.353 26.6226 95.353 25.9019V25.0973L94.1578 25.1475C93.2261 25.1811 92.5468 25.3375 92.1206 25.6169C91.6992 25.8907 91.4889 26.3125 91.4889 26.8824C91.4889 27.2959 91.6123 27.6171 91.8592 27.8462C92.1061 28.0697 92.4765 28.1815 92.9709 28.1815ZM104.816 20.0855C105.214 20.0855 105.543 20.1134 105.801 20.1693L105.607 22.0047C105.326 21.9376 105.034 21.9041 104.732 21.9041C103.94 21.9041 103.298 22.1612 102.803 22.6752C102.315 23.1892 102.071 23.8569 102.071 24.6782V29.5224H100.093V20.2531H101.642L101.903 21.8874H102.004C102.312 21.3342 102.714 20.8956 103.207 20.5716C103.707 20.2475 104.243 20.0855 104.816 20.0855ZM109.513 29.5224H107.535V20.2531H109.513V29.5224ZM107.417 17.7975C107.417 17.4455 107.512 17.1745 107.703 16.9845C107.9 16.7946 108.178 16.6995 108.536 16.6995C108.885 16.6995 109.154 16.7946 109.345 16.9845C109.541 17.1745 109.64 17.4455 109.64 17.7975C109.64 18.1327 109.541 18.3981 109.345 18.5936C109.154 18.7836 108.885 18.8786 108.536 18.8786C108.178 18.8786 107.9 18.7836 107.703 18.5936C107.512 18.3981 107.417 18.1327 107.417 17.7975ZM120.542 29.5224H118.555V23.8234C118.555 23.1082 118.409 22.5746 118.117 22.2226C117.831 21.8706 117.374 21.6946 116.745 21.6946C115.909 21.6946 115.297 21.9404 114.91 22.4322C114.523 22.9238 114.329 23.748 114.329 24.9045V29.5224H112.35V20.2531H113.899L114.177 21.4683H114.279C114.559 21.0269 114.957 20.6861 115.474 20.4459C115.99 20.2056 116.563 20.0855 117.191 20.0855C119.425 20.0855 120.542 21.2169 120.542 23.4797V29.5224ZM137.994 23.2786C137.994 25.3012 137.43 26.8489 136.301 27.9217C135.173 28.9888 133.549 29.5224 131.427 29.5224H127.984V17.2695H131.789C133.747 17.2695 135.272 17.7947 136.361 18.8451C137.449 19.8955 137.994 21.3733 137.994 23.2786ZM135.872 23.3456C135.872 20.4124 134.494 18.9456 131.739 18.9456H129.996V27.8379H131.427C134.39 27.8379 135.872 26.3405 135.872 23.3456ZM142.414 29.5224H140.435V20.2531H142.414V29.5224ZM140.317 17.7975C140.317 17.4455 140.412 17.1745 140.603 16.9845C140.8 16.7946 141.078 16.6995 141.436 16.6995C141.785 16.6995 142.054 16.7946 142.245 16.9845C142.441 17.1745 142.54 17.4455 142.54 17.7975C142.54 18.1327 142.441 18.3981 142.245 18.5936C142.054 18.7836 141.785 18.8786 141.436 18.8786C141.078 18.8786 140.8 18.7836 140.603 18.5936C140.412 18.3981 140.317 18.1327 140.317 17.7975ZM153.114 20.2531V21.3342L151.523 21.6276C151.668 21.8231 151.789 22.0633 151.884 22.3483C151.98 22.6333 152.027 22.935 152.027 23.2534C152.027 24.2089 151.696 24.9604 151.034 25.5079C150.372 26.0555 149.46 26.3293 148.298 26.3293C148.001 26.3293 147.731 26.3069 147.49 26.2623C147.063 26.5249 146.85 26.8321 146.85 27.1841C146.85 27.3965 146.948 27.5557 147.145 27.6618C147.347 27.768 147.714 27.8211 148.247 27.8211H149.872C150.899 27.8211 151.679 28.039 152.212 28.4748C152.746 28.9106 153.012 29.5392 153.012 30.3605C153.012 31.411 152.577 32.2211 151.707 32.791C150.838 33.3609 149.581 33.6459 147.936 33.6459C146.667 33.6459 145.699 33.4223 145.032 32.9754C144.363 32.5284 144.03 31.8914 144.03 31.0645C144.03 30.4946 144.21 30.0141 144.569 29.623C144.933 29.2375 145.441 28.9692 146.092 28.8184C145.828 28.7066 145.61 28.5279 145.436 28.2821C145.268 28.0306 145.183 27.768 145.183 27.4942C145.183 27.1478 145.281 26.8545 145.478 26.6143C145.674 26.374 145.966 26.1365 146.353 25.9019C145.871 25.6951 145.478 25.3599 145.174 24.8961C144.877 24.4268 144.728 23.8792 144.728 23.2534C144.728 22.2478 145.045 21.4683 145.68 20.9152C146.32 20.362 147.229 20.0855 148.407 20.0855C148.671 20.0855 148.946 20.105 149.232 20.1441C149.524 20.1777 149.743 20.214 149.889 20.2531H153.114ZM145.798 30.9639C145.798 31.3886 145.988 31.7154 146.37 31.9445C146.757 32.1736 147.299 32.2881 147.995 32.2881C149.072 32.2881 149.875 32.1345 150.403 31.8272C150.93 31.5198 151.194 31.112 151.194 30.6036C151.194 30.2013 151.048 29.9136 150.756 29.7403C150.47 29.5727 149.934 29.4889 149.148 29.4889H147.65C147.083 29.4889 146.631 29.6202 146.294 29.8828C145.963 30.151 145.798 30.5113 145.798 30.9639ZM146.648 23.2534C146.648 23.8345 146.796 24.2815 147.094 24.5944C147.397 24.9073 147.83 25.0638 148.391 25.0638C149.536 25.0638 150.108 24.4547 150.108 23.2367C150.108 22.6333 149.965 22.1696 149.679 21.8455C149.398 21.5158 148.969 21.351 148.391 21.351C147.818 21.351 147.383 21.513 147.085 21.8371C146.794 22.1612 146.648 22.6333 146.648 23.2534ZM156.826 29.5224H154.848V20.2531H156.826V29.5224ZM154.73 17.7975C154.73 17.4455 154.825 17.1745 155.016 16.9845C155.212 16.7946 155.49 16.6995 155.85 16.6995C156.197 16.6995 156.467 16.7946 156.658 16.9845C156.854 17.1745 156.952 17.4455 156.952 17.7975C156.952 18.1327 156.854 18.3981 156.658 18.5936C156.467 18.7836 156.197 18.8786 155.85 18.8786C155.49 18.8786 155.212 18.7836 155.016 18.5936C154.825 18.3981 154.73 18.1327 154.73 17.7975ZM163.132 28.0977C163.614 28.0977 164.097 28.0222 164.58 27.8714V29.3548C164.361 29.4498 164.077 29.528 163.73 29.5895C163.387 29.6565 163.031 29.69 162.66 29.69C160.785 29.69 159.848 28.7066 159.848 26.74V21.7449H158.577V20.8732L159.941 20.1525L160.614 18.1914H161.835V20.2531H164.487V21.7449H161.835V26.7064C161.835 27.1814 161.953 27.5334 162.189 27.7624C162.43 27.9859 162.744 28.0977 163.132 28.0977ZM172.274 29.5224L171.879 28.2317H171.811C171.362 28.7961 170.91 29.1816 170.456 29.3883C170.001 29.5895 169.418 29.69 168.705 29.69C167.79 29.69 167.074 29.4442 166.558 28.9525C166.048 28.4608 165.792 27.7652 165.792 26.8657C165.792 25.9102 166.148 25.1895 166.861 24.7034C167.574 24.2172 168.66 23.9519 170.119 23.9072L171.727 23.8569V23.3624C171.727 22.7702 171.587 22.3288 171.306 22.0382C171.031 21.7421 170.602 21.594 170.018 21.594C169.541 21.594 169.083 21.6639 168.646 21.8035C168.208 21.9433 167.787 22.108 167.383 22.298L166.743 20.8901C167.248 20.6275 167.801 20.4291 168.402 20.295C169.002 20.1553 169.569 20.0855 170.102 20.0855C171.287 20.0855 172.179 20.3425 172.779 20.8565C173.385 21.3705 173.689 22.1779 173.689 23.2786V29.5224H172.274ZM169.327 28.1815C170.046 28.1815 170.621 27.9831 171.054 27.5864C171.492 27.1841 171.71 26.6226 171.71 25.9019V25.0973L170.515 25.1475C169.583 25.1811 168.904 25.3375 168.477 25.6169C168.056 25.8907 167.846 26.3125 167.846 26.8824C167.846 27.2959 167.97 27.6171 168.216 27.8462C168.463 28.0697 168.834 28.1815 169.327 28.1815ZM178.428 29.5224H176.45V16.4817H178.428V29.5224Z" fill="white"/>
<path d="M23.115 45.9326C10.4025 45.9326 0.0566406 35.6406 0.0566406 22.9943C0.0566406 10.3479 10.4025 0.0559387 23.115 0.0559387C35.8275 0.0559387 46.1734 10.3479 46.1734 22.9943C46.1734 35.6406 35.8275 45.9326 23.115 45.9326ZM23.115 1.73763C11.3266 1.73763 1.74714 11.2785 1.74714 22.9943C1.74714 34.7213 11.3379 44.2509 23.115 44.2509C34.8921 44.2509 44.4829 34.7101 44.4829 22.9943C44.4829 11.2785 34.8921 1.73763 23.115 1.73763Z" fill="white"/>
<path d="M29.3355 14.5859C27.2506 14.5859 25.5488 12.8929 25.5488 10.8189C25.5488 8.74476 27.2506 7.05182 29.3355 7.05182C31.4205 7.05182 33.1223 8.74476 33.1223 10.8189C33.1223 12.8929 31.4205 14.5859 29.3355 14.5859ZM29.3355 7.78061C27.6563 7.78061 26.2814 9.13713 26.2814 10.8189C26.2814 12.5006 27.645 13.8571 29.3355 13.8571C31.0148 13.8571 32.3897 12.5006 32.3897 10.8189C32.3897 9.13713 31.0148 7.78061 29.3355 7.78061Z" fill="white"/>
<path d="M29.7081 7.38821H28.9756V14.1599H29.7081V7.38821Z" fill="white"/>
<path d="M32.728 10.4153H25.9209V11.1441H32.728V10.4153Z" fill="white"/>
<path d="M29.5732 14.4737L29.1562 13.8682C30.3734 13.0274 31.0045 11.8839 30.9369 10.6282C30.8693 9.43982 30.1818 8.31866 29.19 7.76934L29.5394 7.13028C30.7566 7.80298 31.5905 9.1595 31.6694 10.5946C31.7596 12.1081 31.0158 13.4871 29.5732 14.4737Z" fill="white"/>
<path d="M29.1447 14.4849C27.9951 13.9132 27.1386 12.4669 27.0485 10.9758C26.9583 9.41737 27.6908 8.04959 29.0996 7.14154L29.5053 7.75815C28.322 8.52051 27.7134 9.64161 27.781 10.9309C27.8486 12.1529 28.5586 13.375 29.4715 13.8347L29.1447 14.4849Z" fill="white"/>
<path d="M15.9131 16.4134C14.7523 17.6802 14.0648 18.3417 13.907 19.1713C13.8056 19.6983 13.5802 17.7363 13.6929 16.7048C13.8056 15.6286 14.031 15.3707 14.3917 15.1465C14.6058 15.012 15.1242 14.8437 15.6426 14.7316C15.6652 14.7316 15.8117 14.8326 15.8455 15.0007C15.8906 15.1913 15.7553 15.2922 15.6764 15.5949C15.5637 15.9649 15.9695 16.3461 15.9131 16.4134Z" fill="white"/>
<path d="M25.8425 24.1491C27.3977 23.6446 29.663 22.9271 29.6743 22.9495C30.1588 23.4316 31.1055 24.2612 31.5676 25.2254C32.2438 26.6268 32.0635 27.2883 32.086 27.2771C32.2551 27.2098 33.7765 26.6493 35.4219 25.9654C35.591 24.2388 35.1853 23.7679 34.8359 23.2298C34.3738 22.5123 33.3708 21.8844 33.4272 21.436C33.4497 21.279 33.2919 20.8193 32.9876 20.7297C32.9538 20.7185 32.9087 20.7297 32.8975 20.7297C32.3002 20.8978 26.4848 22.7813 25.3691 23.1289C24.9747 23.2522 25.6284 24.2164 25.8425 24.1491Z" fill="white"/>
<path d="M13.6145 26.8735C13.5469 27.0978 13.6483 27.6583 13.8625 27.8825C13.8738 27.8937 11.9466 28.4543 11.0449 28.7458C10.9323 28.7794 10.6393 28.5664 10.6054 28.2077C10.5829 27.9273 10.6956 27.7817 10.8309 27.7368C11.9804 27.378 13.6258 26.8623 13.6145 26.8735Z" fill="white"/>
<path d="M30.4627 15.5725C30.4514 15.6286 30.057 16.9627 29.4709 17.0636C29.099 17.1309 28.9863 16.9963 28.9299 16.9179C28.682 16.5815 28.7046 15.9313 28.6933 15.9313C28.4792 16.0209 28.3326 16.2901 28.2988 16.3797C28.096 16.8842 28.1974 17.1869 28.1298 17.4672C27.9832 18.0614 26.9352 18.6332 26.4506 18.5772C25.8983 18.5211 25.6617 17.669 24.6699 16.8058C24.2303 16.4246 23.6443 15.9986 23.0357 15.7743C22.9456 15.7407 22.9005 15.6398 22.9118 15.4716C22.9118 15.4604 22.9118 15.438 22.9456 15.3707C22.9794 15.3259 23.0808 15.2474 23.1597 15.1689C23.7683 14.5971 24.1177 13.7115 24.1402 12.7473C24.174 11.8952 23.8359 11.0656 23.2048 10.4041C22.4384 9.60813 21.4467 9.12602 20.2746 9.10357C19.1138 9.08119 18.077 9.47356 17.3444 10.1238C17.1754 10.2584 17.0852 10.3592 17.0852 10.3592C16.3865 11.0992 16.2061 11.9176 16.1498 12.1755C16.0483 12.6239 16.0371 12.9939 16.0483 13.1509C16.0709 13.5769 16.1386 13.9244 16.3977 14.4514C16.5781 14.8102 16.8598 15.012 16.7809 15.1914C16.7471 15.2698 16.6682 15.2922 16.5555 15.4828C16.4879 15.5837 16.4766 15.6398 16.4654 15.6734C16.4315 15.808 16.4541 15.9088 16.4654 15.9537C16.533 16.2115 16.7583 16.3013 16.8148 16.4246C16.9838 16.7833 15.9244 17.5457 15.3721 18.1623C14.5157 19.1153 13.8846 20.584 13.7606 21.5706C13.5352 23.3756 13.9071 24.5752 14.2114 25.3712C14.2226 25.3936 14.3128 25.6515 14.3353 25.8196C14.3692 26.1 14.3015 26.2345 14.2677 26.5596C14.2452 26.8623 14.2452 27.1089 14.3353 27.3332C14.5044 27.7816 14.865 28.174 15.3947 28.3198C15.5074 28.3534 16.1272 28.544 16.702 28.1853C16.9725 28.0171 17.0514 27.8265 17.119 27.6695C17.1416 27.6022 17.1979 27.4004 17.1528 27.4004C17.0401 27.4229 16.7922 27.4116 16.5104 27.1987C16.3188 27.0529 16.1272 26.7278 16.116 26.369C16.1047 26.1448 16.1611 25.9766 16.2174 25.8533C16.2399 25.8196 16.2625 25.7412 16.409 25.5954C16.4766 25.5169 16.6232 25.4384 16.6232 25.4384C16.6344 25.4048 16.4541 25.2928 16.3414 25.0349C15.8455 23.8801 16.4541 22.3217 16.8148 22.1311C16.8711 22.0975 16.409 24.6761 17.7163 25.5954C17.7276 25.6067 16.995 25.8309 16.9725 25.8421C16.8598 25.9317 16.7583 26.1784 16.8486 26.4139C16.9274 26.6044 17.0739 26.8399 17.3782 26.8062C17.4684 26.795 18.0432 26.6044 18.0544 26.6044C18.0882 26.6044 18.1446 27.221 17.9079 27.7592C17.8403 27.9162 17.6825 28.2301 17.3106 28.5552C17.2881 28.5776 17.2768 28.5888 17.2768 28.5888C17.6487 29.2279 18.4489 30.0463 19.6097 32.2101C19.7562 32.4792 19.8351 32.7258 19.8801 32.8379C19.8801 32.8379 19.8801 32.8716 19.8801 32.9052C19.914 33.421 18.3474 34.5532 18.1446 35.6968C18.0995 35.9771 18.1446 36.2013 18.2573 36.6498C18.5841 38.0176 19.6886 39.7329 20.669 39.576C21.3452 39.4638 21.8524 38.4996 21.9426 37.8046C22.044 36.9861 21.6383 36.7395 21.7848 35.9659C21.9763 34.912 22.878 34.8672 23.5429 33.4433C23.8697 32.737 23.9486 32.1204 23.9599 31.9634C24.1514 30.1136 22.9456 28.8803 23.3062 28.6898C23.3964 28.6337 25.0192 29.2055 25.3686 30.4051C25.7857 31.8401 24.2754 32.8604 24.8502 34.5421C25.008 34.9905 25.2559 35.282 25.4137 35.4726C26.2928 36.4816 27.8931 37.087 28.4453 36.5713C28.8623 36.1789 28.682 35.1475 28.3777 34.6654C28.3214 34.5869 28.1748 34.3739 28.0058 34.1384C27.7353 33.7797 27.6452 33.7124 27.5775 33.6227C27.1493 32.9612 28.4904 31.515 28.8961 29.766C28.9412 29.5979 28.9976 29.2952 28.9412 28.9252C28.8736 28.387 28.6031 27.9947 28.4341 27.7704C27.4423 26.4699 25.6842 25.6178 24.7713 24.1043C23.9374 22.7141 24.0275 21.1221 24.3881 20.9652C24.715 20.8194 25.3236 21.8957 26.4843 21.8284C26.597 21.8172 26.6759 21.806 26.7436 21.7948C27.7466 21.6042 28.6933 20.427 29.4934 19.4516C30.1697 18.6332 30.2372 18.5211 30.7895 17.7139C31.0037 17.4 31.06 17.2991 31.1163 16.9515C31.229 15.9874 30.4627 15.5725 30.4627 15.5725ZM22.7991 11.2674C23.0132 11.5364 23.1259 11.8279 23.1259 11.8279C23.1597 11.9289 23.3175 12.3549 23.3062 12.7921C23.2837 13.5657 23.1259 13.9805 22.6751 14.4962C22.6413 14.5299 22.4497 14.7093 22.4159 14.7316C22.2243 14.855 22.1905 14.8887 21.9763 14.9895C21.6608 15.1129 21.2889 15.1801 20.8719 15.2026C19.1701 15.281 18.0206 14.216 18.0657 12.893C18.0882 12.2652 18.3474 11.6485 18.8546 11.1552C19.6886 10.3705 20.8156 10.4265 21.0184 10.4265C21.8524 10.4377 22.4497 10.8077 22.7991 11.2674Z" fill="white"/>
</svg>
