<svg width="67" height="67" viewBox="0 0 67 67" fill="none" xmlns="http://www.w3.org/2000/svg">
<path d="M1.24999 33.5C1.25 15.6888 15.6888 1.25 33.5 1.25C51.3112 1.25001 65.75 15.6888 65.75 33.5C65.75 51.3112 51.3112 65.75 33.5 65.75C15.6888 65.75 1.24999 51.3112 1.24999 33.5Z" stroke="white" stroke-width="2.5"/>
<path d="M30.7168 38.7114V37.4468C30.7168 36.353 30.9504 35.4017 31.4175 34.5928C31.8846 33.7839 32.7391 32.9237 33.981 32.0122C35.1772 31.1577 35.9634 30.4627 36.3394 29.9272C36.7267 29.3918 36.9204 28.7936 36.9204 28.1328C36.9204 27.3923 36.647 26.8283 36.1001 26.4409C35.5532 26.0535 34.7899 25.8599 33.8101 25.8599C32.1011 25.8599 30.1528 26.4181 27.9653 27.5347L26.1025 23.792C28.6432 22.3678 31.3377 21.6558 34.186 21.6558C36.533 21.6558 38.3958 22.2197 39.7744 23.3477C41.1644 24.4756 41.8594 25.9795 41.8594 27.8594C41.8594 29.1126 41.5745 30.195 41.0049 31.1064C40.4352 32.0179 39.3529 33.0433 37.7578 34.1826C36.6641 34.9915 35.9691 35.6068 35.6729 36.0283C35.388 36.4499 35.2456 37.0024 35.2456 37.686V38.7114H30.7168ZM30.1699 44.5562C30.1699 43.5991 30.4263 42.8757 30.939 42.3857C31.4517 41.8958 32.1979 41.6509 33.1777 41.6509C34.1234 41.6509 34.8525 41.9015 35.3652 42.4028C35.8893 42.9041 36.1514 43.6219 36.1514 44.5562C36.1514 45.4562 35.8893 46.1683 35.3652 46.6924C34.8411 47.2051 34.112 47.4614 33.1777 47.4614C32.2207 47.4614 31.4801 47.2108 30.9561 46.7095C30.432 46.1968 30.1699 45.479 30.1699 44.5562Z" fill="white"/>
</svg>
