<svg width="39" height="35" viewBox="0 0 39 35" fill="none" xmlns="http://www.w3.org/2000/svg">
<path d="M37.198 1.14786C36.7117 0.743253 36.1247 0.478104 35.4996 0.380636C34.8744 0.283168 34.2346 0.357031 33.6481 0.594361L3.03309 12.9541C2.37855 13.2235 1.82139 13.6856 1.43553 14.279C1.04967 14.8724 0.853359 15.5691 0.872632 16.2766C0.891906 16.9842 1.12586 17.6691 1.54344 18.2407C1.96103 18.8122 2.54252 19.2432 3.21076 19.4766L9.40346 21.6308L12.8543 33.0459C12.9016 33.1982 12.97 33.3431 13.0576 33.4764C13.0713 33.4969 13.09 33.5105 13.1037 33.5327C13.2044 33.6729 13.3259 33.7967 13.4642 33.9C13.5028 33.9302 13.5427 33.9587 13.5838 33.9854C13.7456 34.0928 13.9247 34.1714 14.1133 34.2178L14.1355 34.2195L14.1458 34.2246C14.26 34.2475 14.3761 34.259 14.4926 34.2588L14.5233 34.2536C14.6983 34.2507 14.8717 34.2208 15.0375 34.1648C15.0768 34.1511 15.1093 34.1306 15.1469 34.1136C15.2709 34.0627 15.3885 33.9973 15.4971 33.9188C15.5836 33.8453 15.6702 33.7719 15.7568 33.6984L20.3727 28.6025L27.2572 33.9359C27.8632 34.4079 28.6092 34.6646 29.3773 34.6654C30.1823 34.6644 30.9626 34.3867 31.5871 33.8788C32.2117 33.3708 32.6426 32.6636 32.8076 31.8756L38.3819 4.51328C38.508 3.89769 38.4644 3.25942 38.2559 2.66666C38.0474 2.0739 37.6818 1.54894 37.198 1.14786ZM15.1691 22.174C14.9325 22.4101 14.7709 22.7108 14.7044 23.0384L14.1748 25.6078L12.8355 21.1781L19.7799 17.5615L15.1691 22.174ZM29.3517 31.235L21.2149 24.9313C20.8744 24.6685 20.4475 24.5437 20.0191 24.5817C19.5907 24.6197 19.1924 24.8177 18.9035 25.1363L17.4241 26.7677L17.9468 24.2274L30.047 12.1273C30.3341 11.8385 30.5085 11.4565 30.5389 11.0504C30.5692 10.6443 30.4535 10.2407 30.2126 9.91234C29.9716 9.584 29.6213 9.35254 29.2248 9.25969C28.8282 9.16684 28.4116 9.21871 28.0499 9.40594L10.6847 18.4464L4.32117 16.118L35.0353 3.83336L29.3517 31.235Z" fill="white"/>
</svg>
